{
    "asset" : {
        "generator" : "Khronos glTF Blender I/O v1.6.16",
        "version" : "2.0"
    },
    "scene" : 0,
    "scenes" : [
        {
            "name" : "Scene",
            "nodes" : [
                0,
                1,
                2,
                3,
                4,
                5,
                6,
                7
            ]
        }
    ],
    "nodes" : [
        {
            "name" : "Light",
            "rotation" : [
                0.16907575726509094,
                0.7558803558349609,
                -0.27217137813568115,
                0.570947527885437
            ],
            "translation" : [
                -4.266705513000488,
                5.903861999511719,
                -1.0054539442062378
            ]
        },
        {
            "name" : "Camera",
            "rotation" : [
                -0.45135921239852905,
                0.5534700155258179,
                -0.45723870396614075,
                -0.5299798250198364
            ],
            "translation" : [
                -14.28331184387207,
                3.7459402084350586,
                -0.4198992848396301
            ]
        },
        {
            "mesh" : 0,
            "name" : "Cuerpo-abajo",
            "scale" : [
                1.4693397283554077,
                1.4693397283554077,
                1.4693397283554077
            ]
        },
        {
            "mesh" : 1,
            "name" : "Cuerpo-pecho",
            "scale" : [
                1.082293152809143,
                1.082293152809143,
                1.082293152809143
            ],
            "translation" : [
                0,
                1.7353122234344482,
                0
            ]
        },
        {
            "mesh" : 2,
            "name" : "Cabeza",
            "scale" : [
                0.8431459069252014,
                0.8431459069252014,
                0.8431459069252014
            ],
            "translation" : [
                0,
                3.015186071395874,
                0
            ]
        },
        {
            "mesh" : 3,
            "name" : "Nariz",
            "rotation" : [
                0,
                0,
                -0.7071093916893005,
                -0.7071041464805603
            ],
            "scale" : [
                0.14229783415794373,
                0.3975866436958313,
                0.14229783415794373
            ],
            "translation" : [
                -1.0801020860671997,
                3.1319198608398438,
                -0.06623236835002899
            ]
        },
        {
            "mesh" : 4,
            "name" : "Brazo derecho",
            "rotation" : [
                0.8748491406440735,
                0,
                0,
                0.48439550399780273
            ],
            "scale" : [
                -0.14663733541965485,
                0.9910901784896851,
                -0.14663733541965485
            ],
            "translation" : [
                0.03735816478729248,
                2.371807336807251,
                -1.7741178274154663
            ]
        },
        {
            "mesh" : 5,
            "name" : "Brazo izquierdo",
            "rotation" : [
                0.5735782980918884,
                0,
                0,
                0.8191507458686829
            ],
            "scale" : [
                -0.14663733541965485,
                0.9910901784896851,
                -0.14663733541965485
            ],
            "translation" : [
                -0.04990309476852417,
                2.2689309120178223,
                1.8193439245224
            ]
        }
    ],
    "materials" : [
        {
            "doubleSided" : true,
            "name" : "Nieve",
            "pbrMetallicRoughness" : {
                "baseColorTexture" : {
                    "index" : 0
                },
                "metallicFactor" : 0,
                "roughnessFactor" : 0.8333333730697632
            }
        },
        {
            "doubleSided" : true,
            "name" : "Zanahoria",
            "pbrMetallicRoughness" : {
                "baseColorFactor" : [
                    0.6981920599937439,
                    0.2332967221736908,
                    0.07725889980792999,
                    1
                ],
                "metallicFactor" : 0,
                "roughnessFactor" : 0.8511906862258911
            }
        },
        {
            "doubleSided" : true,
            "name" : "Ramas",
            "pbrMetallicRoughness" : {
                "baseColorFactor" : [
                    0.16264042258262634,
                    0.05609452351927757,
                    0.012916472740471363,
                    1
                ],
                "metallicFactor" : 0,
                "roughnessFactor" : 0.875
            }
        }
    ],
    "meshes" : [
        {
            "name" : "Esfera",
            "primitives" : [
                {
                    "attributes" : {
                        "POSITION" : 0,
                        "NORMAL" : 1,
                        "TEXCOORD_0" : 2
                    },
                    "indices" : 3,
                    "material" : 0
                }
            ]
        },
        {
            "name" : "Esfera.001",
            "primitives" : [
                {
                    "attributes" : {
                        "POSITION" : 4,
                        "NORMAL" : 5,
                        "TEXCOORD_0" : 6
                    },
                    "indices" : 7,
                    "material" : 0
                }
            ]
        },
        {
            "name" : "Esfera.002",
            "primitives" : [
                {
                    "attributes" : {
                        "POSITION" : 8,
                        "NORMAL" : 9,
                        "TEXCOORD_0" : 10
                    },
                    "indices" : 11,
                    "material" : 0
                }
            ]
        },
        {
            "name" : "Cono",
            "primitives" : [
                {
                    "attributes" : {
                        "POSITION" : 12,
                        "NORMAL" : 13,
                        "TEXCOORD_0" : 14
                    },
                    "indices" : 15,
                    "material" : 1
                }
            ]
        },
        {
            "name" : "Cilindro",
            "primitives" : [
                {
                    "attributes" : {
                        "POSITION" : 16,
                        "NORMAL" : 17,
                        "TEXCOORD_0" : 18
                    },
                    "indices" : 19,
                    "material" : 2
                }
            ]
        },
        {
            "name" : "Cilindro.001",
            "primitives" : [
                {
                    "attributes" : {
                        "POSITION" : 20,
                        "NORMAL" : 21,
                        "TEXCOORD_0" : 22
                    },
                    "indices" : 23,
                    "material" : 2
                }
            ]
        }
    ],
    "textures" : [
        {
            "sampler" : 0,
            "source" : 0
        }
    ],
    "images" : [
        {
            "mimeType" : "image/jpeg",
            "name" : "snow01",
            "uri" : "textures/snow01.jpg"
        }
    ],
    "accessors" : [
        {
            "bufferView" : 0,
            "componentType" : 5126,
            "count" : 1984,
            "max" : [
                0.9999997019767761,
                1,
                0.9999994039535522
            ],
            "min" : [
                -0.9999990463256836,
                -1,
                -0.9999987483024597
            ],
            "type" : "VEC3"
        },
        {
            "bufferView" : 1,
            "componentType" : 5126,
            "count" : 1984,
            "type" : "VEC3"
        },
        {
            "bufferView" : 2,
            "componentType" : 5126,
            "count" : 1984,
            "type" : "VEC2"
        },
        {
            "bufferView" : 3,
            "componentType" : 5123,
            "count" : 2880,
            "type" : "SCALAR"
        },
        {
            "bufferView" : 4,
            "componentType" : 5126,
            "count" : 1984,
            "max" : [
                0.9999997019767761,
                1,
                0.9999994039535522
            ],
            "min" : [
                -0.9999990463256836,
                -1,
                -0.9999987483024597
            ],
            "type" : "VEC3"
        },
        {
            "bufferView" : 5,
            "componentType" : 5126,
            "count" : 1984,
            "type" : "VEC3"
        },
        {
            "bufferView" : 6,
            "componentType" : 5126,
            "count" : 1984,
            "type" : "VEC2"
        },
        {
            "bufferView" : 7,
            "componentType" : 5123,
            "count" : 2880,
            "type" : "SCALAR"
        },
        {
            "bufferView" : 8,
            "componentType" : 5126,
            "count" : 3088,
            "max" : [
                0.9999997019767761,
                1,
                0.9999994039535522
            ],
            "min" : [
                -0.999232828617096,
                -1,
                -0.9999987483024597
            ],
            "type" : "VEC3"
        },
        {
            "bufferView" : 9,
            "componentType" : 5126,
            "count" : 3088,
            "type" : "VEC3"
        },
        {
            "bufferView" : 10,
            "componentType" : 5126,
            "count" : 3088,
            "type" : "VEC2"
        },
        {
            "bufferView" : 11,
            "componentType" : 5123,
            "count" : 4560,
            "type" : "SCALAR"
        },
        {
            "bufferView" : 12,
            "componentType" : 5126,
            "count" : 546,
            "max" : [
                1.1426317691802979,
                0.8350370526313782,
                1.0145410299301147
            ],
            "min" : [
                -0.9696815609931946,
                -0.9926164746284485,
                -0.9825887084007263
            ],
            "type" : "VEC3"
        },
        {
            "bufferView" : 13,
            "componentType" : 5126,
            "count" : 546,
            "type" : "VEC3"
        },
        {
            "bufferView" : 14,
            "componentType" : 5126,
            "count" : 546,
            "type" : "VEC2"
        },
        {
            "bufferView" : 15,
            "componentType" : 5123,
            "count" : 816,
            "type" : "SCALAR"
        },
        {
            "bufferView" : 16,
            "componentType" : 5126,
            "count" : 576,
            "max" : [
                1.6326611042022705,
                1.0020196437835693,
                3.71248722076416
            ],
            "min" : [
                -1.0027683973312378,
                -0.9330219626426697,
                -0.9687982201576233
            ],
            "type" : "VEC3"
        },
        {
            "bufferView" : 17,
            "componentType" : 5126,
            "count" : 576,
            "type" : "VEC3"
        },
        {
            "bufferView" : 18,
            "componentType" : 5126,
            "count" : 576,
            "type" : "VEC2"
        },
        {
            "bufferView" : 19,
            "componentType" : 5123,
            "count" : 942,
            "type" : "SCALAR"
        },
        {
            "bufferView" : 20,
            "componentType" : 5126,
            "count" : 320,
            "max" : [
                1,
                0.9947667121887207,
                3.532205820083618
            ],
            "min" : [
                -2.8431973457336426,
                -1,
                -1
            ],
            "type" : "VEC3"
        },
        {
            "bufferView" : 21,
            "componentType" : 5126,
            "count" : 320,
            "type" : "VEC3"
        },
        {
            "bufferView" : 22,
            "componentType" : 5126,
            "count" : 320,
            "type" : "VEC2"
        },
        {
            "bufferView" : 23,
            "componentType" : 5123,
            "count" : 564,
            "type" : "SCALAR"
        }
    ],
    "bufferViews" : [
        {
            "buffer" : 0,
            "byteLength" : 23808,
            "byteOffset" : 0
        },
        {
            "buffer" : 0,
            "byteLength" : 23808,
            "byteOffset" : 23808
        },
        {
            "buffer" : 0,
            "byteLength" : 15872,
            "byteOffset" : 47616
        },
        {
            "buffer" : 0,
            "byteLength" : 5760,
            "byteOffset" : 63488
        },
        {
            "buffer" : 0,
            "byteLength" : 23808,
            "byteOffset" : 69248
        },
        {
            "buffer" : 0,
            "byteLength" : 23808,
            "byteOffset" : 93056
        },
        {
            "buffer" : 0,
            "byteLength" : 15872,
            "byteOffset" : 116864
        },
        {
            "buffer" : 0,
            "byteLength" : 5760,
            "byteOffset" : 132736
        },
        {
            "buffer" : 0,
            "byteLength" : 37056,
            "byteOffset" : 138496
        },
        {
            "buffer" : 0,
            "byteLength" : 37056,
            "byteOffset" : 175552
        },
        {
            "buffer" : 0,
            "byteLength" : 24704,
            "byteOffset" : 212608
        },
        {
            "buffer" : 0,
            "byteLength" : 9120,
            "byteOffset" : 237312
        },
        {
            "buffer" : 0,
            "byteLength" : 6552,
            "byteOffset" : 246432
        },
        {
            "buffer" : 0,
            "byteLength" : 6552,
            "byteOffset" : 252984
        },
        {
            "buffer" : 0,
            "byteLength" : 4368,
            "byteOffset" : 259536
        },
        {
            "buffer" : 0,
            "byteLength" : 1632,
            "byteOffset" : 263904
        },
        {
            "buffer" : 0,
            "byteLength" : 6912,
            "byteOffset" : 265536
        },
        {
            "buffer" : 0,
            "byteLength" : 6912,
            "byteOffset" : 272448
        },
        {
            "buffer" : 0,
            "byteLength" : 4608,
            "byteOffset" : 279360
        },
        {
            "buffer" : 0,
            "byteLength" : 1884,
            "byteOffset" : 283968
        },
        {
            "buffer" : 0,
            "byteLength" : 3840,
            "byteOffset" : 285852
        },
        {
            "buffer" : 0,
            "byteLength" : 3840,
            "byteOffset" : 289692
        },
        {
            "buffer" : 0,
            "byteLength" : 2560,
            "byteOffset" : 293532
        },
        {
            "buffer" : 0,
            "byteLength" : 1128,
            "byteOffset" : 296092
        }
    ],
    "samplers" : [
        {
            "magFilter" : 9729,
            "minFilter" : 9987
        }
    ],
    "buffers" : [
        {
            "byteLength" : 297220,
            "uri" : "snowman-model.bin"
        }
    ]
}
